<?xml version="1.0" encoding="UTF-8"?>
<svg xmlns="http://www.w3.org/2000/svg" xmlns:xlink="http://www.w3.org/1999/xlink" width="18pt" height="18pt" viewBox="0 0 18 18" version="1.1">
<g id="surface1">
<path style=" stroke:none;fill-rule:nonzero;fill:rgb(10.196078%,16.862745%,38.823529%);fill-opacity:1;" d="M 17.816406 9 C 17.816406 13.757812 13.960938 17.613281 9.203125 17.613281 C 4.445312 17.613281 0.589844 13.757812 0.589844 9 C 0.589844 4.242188 4.445312 0.386719 9.203125 0.386719 C 13.960938 0.386719 17.816406 4.242188 17.816406 9 Z M 17.816406 9 "/>
<path style=" stroke:none;fill-rule:nonzero;fill:rgb(56.862745%,87.843137%,90.980392%);fill-opacity:1;" d="M 17.761719 4.65625 L 9.351562 4.65625 L 9.351562 7.910156 C 9.351562 8.007812 9.273438 8.085938 9.175781 8.085938 L 8.035156 8.085938 L 8.035156 11.253906 C 8.035156 11.382812 8.140625 11.492188 8.269531 11.492188 L 17.761719 11.492188 C 17.894531 11.492188 18 11.382812 18 11.253906 L 18 4.894531 C 18 4.761719 17.894531 4.65625 17.761719 4.65625 Z M 17.761719 4.65625 "/>
<path style=" stroke:none;fill-rule:nonzero;fill:rgb(36.470588%,75.686275%,84.705882%);fill-opacity:1;" d="M 8.730469 11.253906 L 8.730469 8.085938 L 8.035156 8.085938 L 8.035156 11.253906 C 8.035156 11.382812 8.140625 11.492188 8.269531 11.492188 L 8.96875 11.492188 C 8.835938 11.492188 8.730469 11.382812 8.730469 11.253906 Z M 8.730469 11.253906 "/>
<path style=" stroke:none;fill-rule:nonzero;fill:rgb(5.882353%,57.647059%,56.470588%);fill-opacity:1;" d="M 15.722656 8.371094 C 15.640625 8.273438 15.5 8.273438 15.417969 8.371094 L 14.183594 9.835938 C 14.101562 9.9375 13.960938 9.9375 13.878906 9.835938 L 11.550781 7.074219 C 11.464844 6.972656 11.328125 6.972656 11.242188 7.074219 L 8.035156 10.882812 L 8.035156 11.253906 C 8.035156 11.382812 8.140625 11.492188 8.269531 11.492188 L 17.761719 11.492188 C 17.894531 11.492188 18 11.382812 18 11.253906 L 18 11.074219 Z M 15.722656 8.371094 "/>
<path style=" stroke:none;fill-rule:nonzero;fill:rgb(100%,100%,100%);fill-opacity:1;" d="M 17.226562 6.421875 C 17.226562 6.914062 16.828125 7.3125 16.335938 7.3125 C 15.84375 7.3125 15.445312 6.914062 15.445312 6.421875 C 15.445312 5.929688 15.84375 5.53125 16.335938 5.53125 C 16.828125 5.53125 17.226562 5.929688 17.226562 6.421875 Z M 17.226562 6.421875 "/>
<path style=" stroke:none;fill-rule:nonzero;fill:rgb(85.098039%,91.764706%,98.823529%);fill-opacity:1;" d="M 15.9375 6.421875 C 15.9375 6.015625 16.210938 5.675781 16.582031 5.566406 C 16.503906 5.546875 16.421875 5.53125 16.335938 5.53125 C 15.847656 5.53125 15.449219 5.929688 15.449219 6.421875 C 15.449219 6.914062 15.847656 7.3125 16.335938 7.3125 C 16.421875 7.3125 16.503906 7.300781 16.582031 7.277344 C 16.210938 7.171875 15.9375 6.828125 15.9375 6.421875 Z M 15.9375 6.421875 "/>
<path style=" stroke:none;fill-rule:nonzero;fill:rgb(99.607843%,21.568627%,27.058824%);fill-opacity:1;" d="M 9.386719 7.945312 C 9.386719 8.042969 9.308594 8.121094 9.210938 8.121094 L 0.175781 8.121094 C 0.078125 8.121094 0 8.042969 0 7.945312 L 0 1.054688 C 0 0.957031 0.078125 0.878906 0.175781 0.878906 L 9.210938 0.878906 C 9.308594 0.878906 9.386719 0.957031 9.386719 1.054688 Z M 9.386719 7.945312 "/>
<path style=" stroke:none;fill-rule:nonzero;fill:rgb(100%,100%,100%);fill-opacity:1;" d="M 2.898438 2.78125 C 2.898438 2.585938 3.039062 2.507812 3.203125 2.605469 L 6.183594 4.324219 C 6.351562 4.421875 6.351562 4.578125 6.183594 4.675781 L 3.203125 6.394531 C 3.039062 6.492188 2.898438 6.414062 2.898438 6.21875 Z M 2.898438 2.78125 "/>
<path style=" stroke:none;fill-rule:nonzero;fill:rgb(85.098039%,91.764706%,98.823529%);fill-opacity:1;" d="M 3.597656 2.832031 L 3.203125 2.605469 C 3.039062 2.507812 2.898438 2.585938 2.898438 2.78125 L 2.898438 6.21875 C 2.898438 6.414062 3.039062 6.492188 3.203125 6.394531 L 3.597656 6.167969 C 3.597656 6.167969 3.597656 2.832031 3.597656 2.832031 Z M 3.597656 2.832031 "/>
<path style=" stroke:none;fill-rule:nonzero;fill:rgb(71.764706%,3.529412%,16.862745%);fill-opacity:1;" d="M 8.84375 2.234375 C 8.84375 2.289062 8.792969 2.339844 8.738281 2.339844 L 8 2.339844 C 7.941406 2.339844 7.894531 2.289062 7.894531 2.234375 L 7.894531 1.496094 C 7.894531 1.4375 7.941406 1.390625 8 1.390625 L 8.738281 1.390625 C 8.792969 1.390625 8.84375 1.4375 8.84375 1.496094 Z M 8.84375 2.234375 "/>
<path style=" stroke:none;fill-rule:nonzero;fill:rgb(71.764706%,3.529412%,16.862745%);fill-opacity:1;" d="M 8.84375 3.550781 C 8.84375 3.609375 8.792969 3.65625 8.738281 3.65625 L 8 3.65625 C 7.941406 3.65625 7.894531 3.609375 7.894531 3.550781 L 7.894531 2.8125 C 7.894531 2.753906 7.941406 2.707031 8 2.707031 L 8.738281 2.707031 C 8.792969 2.707031 8.84375 2.753906 8.84375 2.8125 Z M 8.84375 3.550781 "/>
<path style=" stroke:none;fill-rule:nonzero;fill:rgb(71.764706%,3.529412%,16.862745%);fill-opacity:1;" d="M 8.84375 4.871094 C 8.84375 4.925781 8.792969 4.976562 8.738281 4.976562 L 8 4.976562 C 7.941406 4.976562 7.894531 4.925781 7.894531 4.871094 L 7.894531 4.132812 C 7.894531 4.074219 7.941406 4.027344 8 4.027344 L 8.738281 4.027344 C 8.792969 4.027344 8.84375 4.074219 8.84375 4.132812 Z M 8.84375 4.871094 "/>
<path style=" stroke:none;fill-rule:nonzero;fill:rgb(71.764706%,3.529412%,16.862745%);fill-opacity:1;" d="M 8.84375 6.1875 C 8.84375 6.246094 8.792969 6.292969 8.738281 6.292969 L 8 6.292969 C 7.941406 6.292969 7.894531 6.246094 7.894531 6.1875 L 7.894531 5.449219 C 7.894531 5.390625 7.941406 5.34375 8 5.34375 L 8.738281 5.34375 C 8.792969 5.34375 8.84375 5.390625 8.84375 5.449219 Z M 8.84375 6.1875 "/>
<path style=" stroke:none;fill-rule:nonzero;fill:rgb(71.764706%,3.529412%,16.862745%);fill-opacity:1;" d="M 8.84375 7.507812 C 8.84375 7.5625 8.792969 7.613281 8.738281 7.613281 L 8 7.613281 C 7.941406 7.613281 7.894531 7.5625 7.894531 7.507812 L 7.894531 6.769531 C 7.894531 6.710938 7.941406 6.664062 8 6.664062 L 8.738281 6.664062 C 8.792969 6.664062 8.84375 6.710938 8.84375 6.769531 Z M 8.84375 7.507812 "/>
<path style=" stroke:none;fill-rule:nonzero;fill:rgb(71.764706%,3.529412%,16.862745%);fill-opacity:1;" d="M 1.496094 2.234375 C 1.496094 2.289062 1.449219 2.339844 1.390625 2.339844 L 0.652344 2.339844 C 0.59375 2.339844 0.546875 2.289062 0.546875 2.234375 L 0.546875 1.496094 C 0.546875 1.4375 0.59375 1.390625 0.652344 1.390625 L 1.390625 1.390625 C 1.449219 1.390625 1.496094 1.4375 1.496094 1.496094 Z M 1.496094 2.234375 "/>
<path style=" stroke:none;fill-rule:nonzero;fill:rgb(71.764706%,3.529412%,16.862745%);fill-opacity:1;" d="M 1.496094 3.550781 C 1.496094 3.609375 1.449219 3.65625 1.390625 3.65625 L 0.652344 3.65625 C 0.59375 3.65625 0.546875 3.609375 0.546875 3.550781 L 0.546875 2.8125 C 0.546875 2.753906 0.59375 2.707031 0.652344 2.707031 L 1.390625 2.707031 C 1.449219 2.707031 1.496094 2.753906 1.496094 2.8125 Z M 1.496094 3.550781 "/>
<path style=" stroke:none;fill-rule:nonzero;fill:rgb(71.764706%,3.529412%,16.862745%);fill-opacity:1;" d="M 1.496094 4.871094 C 1.496094 4.925781 1.449219 4.976562 1.390625 4.976562 L 0.652344 4.976562 C 0.59375 4.976562 0.546875 4.925781 0.546875 4.871094 L 0.546875 4.132812 C 0.546875 4.074219 0.59375 4.027344 0.652344 4.027344 L 1.390625 4.027344 C 1.449219 4.027344 1.496094 4.074219 1.496094 4.132812 Z M 1.496094 4.871094 "/>
<path style=" stroke:none;fill-rule:nonzero;fill:rgb(71.764706%,3.529412%,16.862745%);fill-opacity:1;" d="M 1.496094 6.1875 C 1.496094 6.246094 1.449219 6.292969 1.390625 6.292969 L 0.652344 6.292969 C 0.59375 6.292969 0.546875 6.246094 0.546875 6.1875 L 0.546875 5.449219 C 0.546875 5.390625 0.59375 5.34375 0.652344 5.34375 L 1.390625 5.34375 C 1.449219 5.34375 1.496094 5.390625 1.496094 5.449219 Z M 1.496094 6.1875 "/>
<path style=" stroke:none;fill-rule:nonzero;fill:rgb(71.764706%,3.529412%,16.862745%);fill-opacity:1;" d="M 1.496094 7.507812 C 1.496094 7.5625 1.449219 7.613281 1.390625 7.613281 L 0.652344 7.613281 C 0.59375 7.613281 0.546875 7.5625 0.546875 7.507812 L 0.546875 6.769531 C 0.546875 6.710938 0.59375 6.664062 0.652344 6.664062 L 1.390625 6.664062 C 1.449219 6.664062 1.496094 6.710938 1.496094 6.769531 Z M 1.496094 7.507812 "/>
<path style=" stroke:none;fill-rule:nonzero;fill:rgb(32.156863%,73.333333%,93.72549%);fill-opacity:1;" d="M 7.242188 8.964844 L 1.125 8.964844 C 1.03125 8.964844 0.949219 9.042969 0.949219 9.140625 L 0.949219 11.46875 C 1.195312 12.285156 1.554688 13.046875 2.011719 13.742188 L 4.230469 13.742188 L 5.664062 15.175781 C 5.734375 15.242188 5.789062 15.222656 5.789062 15.125 L 5.789062 13.742188 L 7.242188 13.742188 C 7.335938 13.742188 7.417969 13.664062 7.417969 13.566406 L 7.417969 9.140625 C 7.417969 9.042969 7.335938 8.964844 7.242188 8.964844 Z M 7.242188 8.964844 "/>
<path style=" stroke:none;fill-rule:nonzero;fill:rgb(11.764706%,60%,83.921569%);fill-opacity:1;" d="M 1.648438 9.140625 C 1.648438 9.042969 1.726562 8.964844 1.824219 8.964844 L 1.125 8.964844 C 1.03125 8.964844 0.949219 9.042969 0.949219 9.140625 L 0.949219 11.46875 C 1.125 12.050781 1.359375 12.609375 1.648438 13.136719 Z M 1.648438 9.140625 "/>
<path style=" stroke:none;fill-rule:nonzero;fill:rgb(100%,100%,100%);fill-opacity:1;" d="M 5.929688 10.710938 L 2.4375 10.710938 C 2.292969 10.710938 2.175781 10.59375 2.175781 10.445312 C 2.175781 10.300781 2.292969 10.183594 2.4375 10.183594 L 5.929688 10.183594 C 6.074219 10.183594 6.191406 10.300781 6.191406 10.445312 C 6.191406 10.59375 6.074219 10.710938 5.929688 10.710938 Z M 5.929688 10.710938 "/>
<path style=" stroke:none;fill-rule:nonzero;fill:rgb(100%,100%,100%);fill-opacity:1;" d="M 5.929688 11.628906 L 2.4375 11.628906 C 2.292969 11.628906 2.175781 11.511719 2.175781 11.367188 C 2.175781 11.21875 2.292969 11.101562 2.4375 11.101562 L 5.929688 11.101562 C 6.074219 11.101562 6.191406 11.21875 6.191406 11.367188 C 6.191406 11.511719 6.074219 11.628906 5.929688 11.628906 Z M 5.929688 11.628906 "/>
<path style=" stroke:none;fill-rule:nonzero;fill:rgb(100%,100%,100%);fill-opacity:1;" d="M 4.191406 12.546875 L 2.4375 12.546875 C 2.292969 12.546875 2.175781 12.429688 2.175781 12.285156 C 2.175781 12.136719 2.292969 12.019531 2.4375 12.019531 L 4.191406 12.019531 C 4.335938 12.019531 4.453125 12.136719 4.453125 12.285156 C 4.453125 12.429688 4.335938 12.546875 4.191406 12.546875 Z M 4.191406 12.546875 "/>
<path style=" stroke:none;fill-rule:nonzero;fill:rgb(93.72549%,51.372549%,9.411765%);fill-opacity:1;" d="M 13.765625 12.394531 L 8.226562 12.394531 C 8.128906 12.394531 8.050781 12.472656 8.050781 12.570312 L 8.050781 16.765625 C 8.050781 16.863281 8.128906 16.941406 8.226562 16.941406 L 12.546875 16.941406 C 13.035156 16.734375 13.503906 16.484375 13.941406 16.191406 L 13.941406 12.570312 C 13.941406 12.472656 13.863281 12.394531 13.765625 12.394531 Z M 13.765625 12.394531 "/>
<path style=" stroke:none;fill-rule:nonzero;fill:rgb(85.882353%,44.705882%,17.254902%);fill-opacity:1;" d="M 8.75 16.765625 L 8.75 12.570312 C 8.75 12.472656 8.828125 12.394531 8.925781 12.394531 L 8.226562 12.394531 C 8.128906 12.394531 8.050781 12.472656 8.050781 12.570312 L 8.050781 16.765625 C 8.050781 16.863281 8.128906 16.941406 8.226562 16.941406 L 8.925781 16.941406 C 8.828125 16.941406 8.75 16.863281 8.75 16.765625 Z M 8.75 16.765625 "/>
<path style=" stroke:none;fill-rule:nonzero;fill:rgb(100%,100%,100%);fill-opacity:1;" d="M 10.019531 13.71875 C 10.019531 13.527344 10.15625 13.445312 10.324219 13.542969 L 11.96875 14.492188 C 12.136719 14.589844 12.136719 14.746094 11.96875 14.84375 L 10.324219 15.792969 C 10.15625 15.886719 10.019531 15.808594 10.019531 15.617188 Z M 10.019531 13.71875 "/>
</g>
</svg>
